#!OML:ASF H:\Martial Arts Walks\Project 1\Capture day 1\Session 1\male.ASF
:FULLY-SPECIFIED
:DEGREES
2764
root 10.2502 14.9963 -23.9706 -180.06 43.491 -534.85
lowerback 15.3707 0.165691 -7.26571
upperback -0.35196 -0.671458 3.76184
thorax -8.92567 0.148035 8.43152
lowerneck 2.67122 -12.3518 -13.5701
upperneck 5.77258 -17.156 10.5001
head 3.36616 -8.62288 4.63738
rclavicle -6.36111e-014 5.56597e-015
rhumerus 11.0505 25.6321 -59.7365
rradius 120.435
rwrist 19.7229
rhand -37.5897 -44.9958
rfingers 7.12502
rthumb -10.6435 285.294
lclavicle -6.36111e-014 5.56597e-015
lhumerus -8.17106 -77.7537 102.761
lradius 84.7132
lwrist 35.4884
lhand 1.34887 757.378
lfingers 7.12502
lthumb 26.8817 -294.514
rfemur -45.0891 -19.2831 5.23315
rtibia 43.2764
rfoot 12.1042 0.181249
rtoes 4.54263
lfemur -28.4369 18.1501 -20.6491
ltibia 70.5566
lfoot -32.9815 20.0882
ltoes 2.86957
2765
root 10.4046 14.9821 -23.9824 -180.313 42.9129 -535.072
lowerback 15.2603 0.114751 -7.41905
upperback -0.423506 -0.767099 3.74241
thorax -8.9222 0.109033 8.51946
lowerneck 2.42723 -12.4281 -13.731
upperneck 5.93938 -17.2262 10.2353
head 3.45464 -8.65972 4.55275
rclavicle 1.41584e-013 1.54058e-014
rhumerus 6.50388 21.748 -62.566
rradius 119.87
rwrist 27.3691
rhand -37.9303 -48.8581
rfingers 7.12502
rthumb -10.972 281.449
lclavicle 1.41584e-013 1.54058e-014
lhumerus -17.1769 -75.5117 109.26
lradius 88.6659
lwrist 42.1677
lhand 4.64477 757.451
lfingers 7.12502
lthumb 30.0311 -294.967
rfemur -44.2615 -19.5606 4.7387
rtibia 42.4013
rfoot 12.6307 -1.36816
rtoes 8.88867
lfemur -28.0582 18.703 -20.3565
ltibia 70.6856
lfoot -33.2698 20.4314
ltoes 2.65328
2766
root 10.5539 14.9631 -23.9938 -180.634 42.3403 -535.322
lowerback 15.2572 0.0517632 -7.56915
upperback -0.503285 -0.880622 3.75721
thorax -8.98434 0.0670084 8.65251
lowerneck 2.26746 -12.4211 -13.8795
upperneck 6.00955 -17.181 9.89775
head 3.47912 -8.64405 4.46404
rclavicle -3.0501e-015 -4.37326e-015
rhumerus 2.52555 17.4817 -64.689
rradius 118.752
rwrist 34.0045
rhand -39.9286 -55.68
rfingers 7.12502
rthumb -12.899 274.739
lclavicle -3.0501e-015 -4.37326e-015
lhumerus -24.4637 -72.839 113.829
lradius 92.5519
lwrist 49.782
lhand 7.68884 757.717
lfingers 7.12502
lthumb 32.9311 -295.268
rfemur -43.4135 -20.0015 4.27753
rtibia 41.9889
rfoot 13.0382 -2.22534
rtoes 11.6303
lfemur -27.672 19.2204 -20.0946
ltibia 70.9001
lfoot -33.5755 20.8818
ltoes 2.52016
2767
root 10.6965 14.9369 -24.0048 -180.94 41.7717 -535.504
lowerback 15.3032 -0.0913198 -7.60775
upperback -0.511909 -1.07958 3.77237
thorax -8.9781 -0.0266282 8.73838
lowerneck 1.90886 -12.3934 -13.9158
upperneck 6.05012 -17.0868 9.60279
head 3.51497 -8.59627 4.36438
rclavicle -4.69629e-014 3.49861e-014
rhumerus -0.377128 12.9149 -66.5689
rradius 117.228
rwrist 38.4365
rhand -39.9866 -60.6532
rfingers 7.12502
rthumb -12.9549 450.231
lclavicle -4.69629e-014 3.49861e-014
lhumerus -29.9047 -69.7427 116.263
lradius 96.2912
lwrist 58.2931
lhand 10.5711 759.398
lfingers 7.12502
lthumb 35.6678 -294.204
rfemur -42.5759 -20.5826 3.97232
rtibia 41.9978
rfoot 13.5431 -2.65918
rtoes 12.3994
lfemur -27.3402 19.6889 -19.7813
ltibia 71.2655
lfoot -33.9136 21.3663
ltoes 2.241
2768
root 10.8366 14.8929 -24.0121 -181.235 41.2683 -535.654
lowerback 15.4085 -0.166735 -7.535
upperback -0.52773 -1.16944 3.80113
thorax -9.03733 -0.067857 8.75314
lowerneck 1.80678 -12.3657 -14.0208
upperneck 5.85959 -17.0187 9.40424
head 3.45721 -8.56766 4.32477
rclavicle -5.95919e-014 -1.07344e-014
rhumerus -2.63461 8.5026 -67.691
rradius 115.429
rwrist 40.1516
rhand -40.1065 -62.3147
rfingers 7.12502
rthumb -13.0705 451.885
lclavicle -5.95919e-014 -1.07344e-014
lhumerus -34.7207 -66.8062 117.896
lradius 99.7421
lwrist 66.8952
lhand 10.9141 759.612
lfingers 7.12502
lthumb 35.9929 -294.07
rfemur -41.8182 -21.368 3.86511
rtibia 42.4078
rfoot 13.2106 -1.28078
rtoes 10.2918
lfemur -27.0071 20.0437 -19.4093
ltibia 71.7383
lfoot -34.3218 21.745
ltoes 1.76278
2769
root 10.9663 14.841 -24.0141 -181.277 40.7354 -535.475
lowerback 15.6488 -0.328983 -7.19674
upperback -0.559383 -1.32674 3.87283
thorax -9.18062 -0.146471 8.68248
lowerneck 1.70673 -12.3014 -13.996
upperneck 5.57498 -16.9077 9.33465
head 3.36593 -8.5119 4.31266
rclavicle 1.04256e-013 -2.42517e-014
rhumerus -4.13474 4.56343 -68.3747
rradius 113.406
rwrist 39.7491
rhand -39.7672 -59.4088
rfingers 7.12502
rthumb -12.7433 631
lclavicle 1.04256e-013 -2.42517e-014
lhumerus -38.7837 -63.6501 118.527
lradius 102.803
lwrist 75.7308
lhand 9.26818 758.74
lfingers 7.12502
lthumb 34.4319 -294.573
rfemur -41.2621 -22.4162 4.23707
rtibia 43.1389
rfoot 12.06 1.65851
rtoes 0.900312
lfemur -26.8827 20.2213 -18.7793
ltibia 72.3856
lfoot -34.6989 22.1036
ltoes 1.24578
2770
root 11.0854 14.793 -24.0197 -181.493 40.2679 -535.512
lowerback 15.8714 -0.536807 -7.07157
upperback -0.554352 -1.58449 3.92111
thorax -9.2504 -0.269682 8.73202
lowerneck 1.63982 -12.2174 -13.7725
upperneck 5.23223 -16.7656 9.17382
head 3.22395 -8.43901 4.25425
rclavicle -5.43987e-014 1.23246e-014
rhumerus -4.89754 1.3467 -68.947
rradius 111.058
rwrist 38.2331
rhand -40.094 -57.1783
rfingers 7.12502
rthumb -13.0584 633.25
lclavicle -5.43987e-014 1.23246e-014
lhumerus -42.1203 -60.3355 118.293
lradius 105.355
lwrist 83.8524
lhand 8.60825 757.803
lfingers 7.12502
lthumb 33.8051 -295.371
rfemur -40.5638 -22.6371 4.14028
rtibia 44.0874
rfoot 10.9008 1.98983
rtoes 4.50093
lfemur -26.7188 20.1784 -18.325
ltibia 73.0284
lfoot -35.1035 22.2959
ltoes 0.929403
2771
root 11.1992 14.7287 -24.0246 -181.564 39.8892 -535.453
lowerback 15.916 -0.745322 -6.87067
upperback -0.516677 -1.81231 4.00495
thorax -9.18988 -0.389219 8.75982
lowerneck 1.82612 -12.1517 -13.648
upperneck 4.70952 -16.6853 9.24359
head 3.02293 -8.39998 4.29394
rclavicle 1.04728e-013 3.02153e-014
rhumerus -4.94591 -1.26657 -69.368
rradius 108.387
rwrist 36.5585
rhand -40.348 -55.4118
rfingers 7.12502
rthumb -13.3032 635.033
lclavicle 1.04728e-013 3.02153e-014
lhumerus -45.0263 -57.1572 117.79
lradius 107.333
lwrist 90.4909
lhand 9.84846 757.6
lfingers 7.12502
lthumb 34.9826 -295.84
rfemur -40.4106 -23.9123 4.62422
rtibia 45.1251
rfoot 9.90532 3.07003
rtoes 4.32425
lfemur -26.6677 20.1202 -17.8343
ltibia 73.7866
lfoot -35.5529 22.5679
ltoes 0.569619
2772
root 11.3046 14.6693 -24.0262 -181.5 39.4919 -535.386
lowerback 15.868 -0.946622 -6.65969
upperback -0.477853 -2.02579 4.07364
thorax -9.08013 -0.506089 8.75548
lowerneck 1.95258 -12.179 -13.4381
upperneck 4.26671 -16.7271 9.36491
head 2.86723 -8.41797 4.32065
rclavicle 1.12543e-013 -1.70955e-014
rhumerus -4.60849 -3.37323 -69.5434
rradius 105.698
rwrist 35.4031
rhand -39.9395 -55.6759
rfingers 7.12502
rthumb -12.9095 634.743
lclavicle 1.12543e-013 -1.70955e-014
lhumerus -47.615 -54.4871 117.238
lradius 108.738
lwrist 94.697
lhand 9.21946 744.437
lfingers 7.12502
lthumb 34.3857 -308.866
rfemur -40.5724 -25.1268 5.11267
rtibia 46.1872
rfoot 7.81723 4.88123
rtoes 4.98429
lfemur -26.8279 19.922 -17.4017
ltibia 74.5334
lfoot -35.8967 22.8141
ltoes 0.109282
2773
root 11.4008 14.6136 -24.0307 -181.404 39.2968 -535.371
lowerback 15.8408 -1.06098 -6.52652
upperback -0.483172 -2.13835 4.17004
thorax -9.04875 -0.564025 8.80915
lowerneck 2.09733 -12.2266 -13.411
upperneck 3.96096 -16.8101 9.63873
head 2.78324 -8.45791 4.40972
rclavicle 5.85172e-014 -3.22031e-014
rhumerus -4.06881 -5.10544 -69.4788
rradius 103.185
rwrist 34.5784
rhand -39.2857 -56.1667
rfingers 7.12502
rthumb -12.2791 634.214
lclavicle 5.85172e-014 -3.22031e-014
lhumerus -49.9202 -52.2577 116.931
lradius 109.736
lwrist 96.2261
lhand 10.954 756.125
lfingers 7.12502
lthumb 36.0306 -297.566
rfemur -41.0052 -26.2033 5.62288
rtibia 47.2262
rfoot 6.18126 6.20434
rtoes 4.73919
lfemur -27.0402 19.8314 -17.065
ltibia 75.2691
lfoot -36.2693 23.0575
ltoes -0.234126
2774
root 11.4899 14.5562 -24.0341 -181.255 39.1812 -535.486
lowerback 15.8186 -1.10874 -6.55667
upperback -0.574852 -2.19379 4.30057
thorax -9.12105 -0.577799 8.99023
lowerneck 2.1121 -12.4059 -13.4088
upperneck 3.93447 -17.0578 9.77801
head 2.81339 -8.5787 4.43148
rclavicle -2.11581e-014 -3.49861e-014
rhumerus -3.53987 -6.33199 -69.118
rradius 101.062
rwrist 33.389
rhand -39.2022 -57.3782
rfingers 7.12502
rthumb -12.1987 632.998
lclavicle -2.11581e-014 -3.49861e-014
lhumerus -51.9643 -50.6869 116.964
lradius 110.373
lwrist 95.5605
lhand 10.2383 759.934
lfingers 7.12502
lthumb 35.3523 -293.593
rfemur -41.7014 -27.4007 6.14228
rtibia 48.2516
rfoot 4.98143 7.31491
rtoes 6.4327
lfemur -27.4173 19.7993 -16.9234
ltibia 75.9748
lfoot -36.6688 23.2732
ltoes -0.408263
